<?xml version="1.0" encoding="UTF-8" standalone="no"?>
<svg width="640" xmlns="http://www.w3.org/2000/svg" height="480">
 <switch>
  <g fill="#ff7f00">
   <path id="Sound" d="m31.407 284.33c-0.216-0.44299-0.36-1.495-0.319-2.33 0.085001-1.769 1.387-3.112 6.106-6.301 1.703-1.149 3.785-2.596 4.624-3.211 1.127-0.82999 1.79-1.025 2.533-0.75101 1.499 0.556 1.471 1.674-0.096001 3.799-0.769 1.049-1.309 2.055-1.194 2.233 0.281 0.46399-4.497 5.324-6.332 6.444-1.915 1.167-4.779 1.233-5.322 0.117zm-24.285-14.73c-3.842-0.616-6.287-1.265-6.727-1.797-0.96-1.157-0.092-2.823 1.774-3.402 0.95-0.29498 2.389-0.832 3.195-1.198 0.808-0.35901 3.516-0.854 6.017-1.091 2.501-0.23898 4.847-0.539 5.21-0.673 0.705-0.25198 10.707-1.82 16.654-2.614 3.293-0.436 3.726-0.39102 5.876 0.59598 2.775 1.271 3.006 2.296 0.885 3.955-1.861 1.448-21.2 5.614-26.206 5.644-1.394 0.007019-3.26 0.17502-4.147 0.375-0.884 0.19202-2.024 0.28799-2.531 0.20502zm390.21-9.399c-2.295-0.655-3.919-1.501-5.696-2.964-1.368-1.124-2.745-2.046-3.061-2.046-0.86401 0-5.312-4.626-5.312-5.523 0-0.96001 1.243-2.088 2.69-2.44 1.39-0.341 7.273 0.841 9.059 1.815 2.531 1.387 5.311 3.904 5.941 5.38 0.34299 0.806 1.168 2.08 1.832 2.839 1.358 1.555 1.577 3.219 0.48099 3.639-1.146 0.44-2.486 0.284-5.934-0.70001zm-360.42-12.652c-0.593-0.416-1.938-1.714-2.994-2.887-4.312-4.772-10.615-10.662-11.415-10.662-0.633 0-2.245-2.858-2.247-3.981-0.002001-1.18 0.799-1.548 3.377-1.548 2.727 0 4.734 0.672 6.46 2.162 0.82 0.711 2.404 2.02 3.517 2.904 1.112 0.88701 2.346 2 2.74 2.473 1.109 1.319 1.616 1.784 3.88 3.516 1.158 0.888 2.228 1.963 2.374 2.397 0.253 0.739-0.877 3.549-1.629 4.052-0.19 0.12601-0.422 0.646-0.518 1.156-0.222 1.196-2.122 1.423-3.545 0.418zm376.53-9.22c-1.522-0.353-4.112-0.72101-5.759-0.81801-1.647-0.098999-5.438-0.72099-8.427-1.385-4.697-1.052-6.107-1.184-10.474-0.95799-6.181 0.31099-6.901 0.030991-6.891-2.684 0.002991-1.064 0.16101-2.18 0.34601-2.475 0.677-1.065 4.141-1.961 9.781-2.531 7.269-0.73401 11.074-0.73401 16.585-0.008011 2.405 0.32301 5.618 0.68701 7.14 0.81401 1.521 0.129 3.202 0.522 3.738 0.873 1.069 0.694 1.873 4.118 1.177 5.006-0.22699 0.291-0.547 1.104-0.71701 1.805-0.37799 1.581-1.852 3.112-2.93 3.053-0.444-0.026001-2.049-0.339-3.569-0.692zm-29.912-22.1c-0.39899-0.398-0.72501-0.83499-0.72501-0.97299 0-0.55901 2.478-4.753 2.807-4.753 0.194 0 0.47699-0.373 0.62201-0.834 0.146-0.459 2.454-3.101 5.129-5.872 6.268-6.496 11.25-12.272 11.253-13.049 0-0.53999 4.015-2.818 4.965-2.818 1.5 0 2.406 0.49699 2.403 1.319 0 1.193-2.722 6.124-4.358 7.896-1.68 1.816-6.436 7.8-7.874 9.902-1.378 2.021-7.069 7.557-9.062 8.819-1.983 1.257-4.117 1.407-5.16 0.36299z"/>
   <path id="Frame" d="m105.39 340.18c-0.117-0.12-3.412-0.29501-7.32-0.396-7.038-0.17999-10.723-0.629-15.631-1.904-1.393-0.35901-5.541-1.287-9.214-2.055-3.674-0.767-7.977-1.73-9.561-2.143-2.953-0.76202-6.562-2.953-6.562-3.988 0-0.315-0.393-0.81799-0.869-1.116-1.827-1.14-2.638-8.761-1.833-17.187 0.55-5.738 0.619-26.492 0.173-51.323-0.216-11.965-0.154-19.395 0.178-22.345 0.277-2.43 0.615-5.453 0.757-6.72 0.138-1.265 0.342-6.412 0.453-11.432 0.112-5.023 0.31-9.303 0.438-9.512 0.132-0.207 0.455-4.497 0.723-9.525 0.874-16.466 0.884-16.535 2.755-22.277 0.539-1.648 1.325-4.111 1.75-5.48 0.437-1.406 1.527-3.34 2.516-4.465 2.478-2.817 8.386-5.479 13.21-5.963 0.917-0.091003 2.242-0.384 2.944-0.65001 0.704-0.269 2.019-0.48599 2.924-0.48599 0.904 0 2.394-0.19301 3.31-0.431 5.017-1.299 9.331-1.855 15.947-2.065 4.055-0.13 7.784-0.336 8.292-0.454 0.508-0.119 1.461-0.33301 2.119-0.47101 0.696-0.145 1.711-0.98599 2.41-1.994l1.21-1.749 0.125-11.045 0.126-11.045-3.495-0.014c-2.526-0.005997-3.832-0.23399-4.713-0.811-1.605-1.051-2.792-2.902-2.443-3.808 0.152-0.399 0.403-1.904 0.557-3.346s0.364-2.759 0.471-2.929c0.301-0.494 0.588-3.842 0.859-10.054 0.418-9.626 1.459-16.126 2.581-16.126 0.21 0 0.88-0.497 1.488-1.106 2.435-2.432 3.717-2.708 22.661-4.871 5.516-0.626 16.636-1.473 17.632-1.344 0.438 0.058998 2.145-0.041 3.791-0.224 2.99-0.333 4.78-0.423 18.657-0.956 4.056-0.154 8.924-0.472 10.825-0.706 1.903-0.232 6.67-0.557 10.597-0.724 3.928-0.166 8.15-0.459 9.385-0.655 1.234-0.193 5.482-0.40601 9.445-0.473 3.957-0.070007 7.82-0.172 8.58-0.228 0.761-0.055 4.077-0.255 7.37-0.44 3.296-0.188 6.716-0.412 7.604-0.5 0.88701-0.087997 8.307-0.375 16.491-0.635 8.182-0.261 15.646-0.667 16.584-0.902 1.924-0.482 13.771-1.218 17.543-1.084 1.718 0.059998 3.062 0.444 4.377 1.242 3.413 2.068 4.021 2.816 4.417 5.417 0.202 1.337 0.79898 4.503 1.322 7.037 0.52399 2.534 1.277 6.576 1.674 8.984 0.393 2.408 1.127 6.655 1.627 9.444 0.91299 5.089 1.148 9.24 0.629 11.171-0.198 0.738-0.625 1.039-1.489 1.042-0.668 0.002998-2.148 0.291-3.285 0.634-1.962 0.586-2.069 0.71-1.976 2.183 0.052979 0.854 0.23599 4.559 0.40799 8.235 0.298 6.396 0.37701 6.806 1.86 9.672 2.411 4.654 2.518 4.749 5.09 4.43 1.219-0.147 5.118-0.479 8.666-0.73599 3.548-0.25 7.381-0.61801 8.523-0.81201 2.025-0.342 2.079-0.394 2.421-2.421 0.19-1.142 0.539-4.353 0.77103-7.142 0.23498-2.786 0.77197-9.21 1.197-14.277 0.83398-10.03 0.75101-27.744-0.25101-51.831-0.27701-6.712-0.569-20.542-0.643-30.726l-0.135-18.515-2.106-2.047c-4.165-4.049-5.128-8.207-3.306-14.247 0.522-1.729 2.585-3.572 5.838-5.224 3.225-1.631 5.22-1.904 8.189-1.12 6.287 1.649 8.948 3.615 9.384 6.926 0.41098 3.125 0.29599 7.421-0.22501 8.395-0.31699 0.591-0.289 1.382 0.088013 2.53 0.556 1.687 0.41 3.539-1.006 12.797-0.271 1.773-0.59399 7.531-0.71301 12.794-0.18298 7.827-0.086975 10.18 0.53403 12.902 0.896 3.937 1.01 13.62 0.26498 22.676-0.31799 3.836-0.34601 7.562-0.083984 10.362 0.228 2.407 0.43698 11.806 0.46298 20.888 0.031006 9.079 0.26599 19.446 0.52701 23.037 0.26099 3.586 0.33798 8.286 0.177 10.438l-0.291 3.917 8.917 0.115c4.901 0.067001 9.461 0.27 10.131 0.463 3.208 0.90201 7.995 9.409 10.284 18.259 2.092 8.101 2.937 16.64 3.712 37.532 0.12601 3.385 0.32901 6.324 0.45902 6.526 0.12799 0.204 0.33499 1.583 0.46399 3.063 0.12399 1.473 0.367 3.308 0.53101 4.064 0.16299 0.761 0.23099 4.08 0.146 7.371-0.45001 17.391-0.116 36.943 0.78198 45.84 0.16602 1.643 0.25601 3.176 0.203 3.4-0.057983 0.224-0.10397 3.229-0.10397 6.681 0 15.94-0.063019 18.31-0.66202 24.812-0.207 2.25-0.60501 4.015-0.97501 4.318-0.34598 0.28699-0.625 0.784-0.625 1.104 0 0.75299-1.389 3.785-2.477 5.405-1.02 1.515-5.011 3.465-10.652 5.204-2.279 0.70401-4.561 1.447-5.066 1.658-1.58 0.65698-7.961 2.192-14.22 3.42-2.586 0.508-15.697 1.458-25.171 1.829-3.417 0.12799-7.356 0.33301-8.752 0.444-1.393 0.11099-4.503 0.31799-6.91 0.45499-2.406 0.14102-4.894 0.353-5.525 0.47202-0.63602 0.11899-2.811 0.32098-4.841 0.44998-2.026 0.133-6.482 0.53601-9.903 0.90002-6.144 0.66199-7.336 0.77698-17.275 1.642-12.975 1.132-18.121 1.38-32.938 1.596-16.992 0.245-19.14 0.34802-29.485 1.397-23.066 2.341-38.479 3.037-69.561 3.155-14.317 0.057007-26.259 0.245-26.541 0.41602-0.283 0.181-0.607 0.22598-0.723 0.11099zm37.545-10.123c3.846-0.19202 14.145-0.41202 22.887-0.48401 8.741-0.067993 17.551-0.25299 19.579-0.39099 4.152-0.302 14.304-0.729 22.572-0.952 4.831-0.13501 13.79-0.849 17.968-1.429 0.76-0.10898 4.386-0.40601 8.061-0.66498 3.676-0.25403 7.924-0.65402 9.446-0.88101 1.52-0.23099 7.428-0.357 13.127-0.28 5.702 0.076996 12.334-0.04599 14.743-0.26199 2.407-0.22101 7.176-0.51901 10.595-0.659 6.516-0.27502 6.969-0.32101 11.057-1.157 2.594-0.52899 7.009-1.072 14.741-1.815 7.527-0.73401 12.513-1.341 17.045-2.092 6.376-1.063 10.008-1.565 13.129-1.841 1.523-0.12802 3.597-0.43201 4.608-0.67203 1.014-0.24298 3.397-0.66598 5.297-0.94598 1.901-0.27701 3.871-0.67999 4.379-0.89099 1.51-0.63202 8.762-2.785 9.376-2.785 0.314 0 1.153-0.302 1.864-0.668 0.97601-0.504 1.639-1.55 2.706-4.265 3.172-8.063 3.097-7.102 3.097-40.677 0-20.735-0.35901-35.023-0.90201-35.901-0.492-0.796-1.187-14.474-1.194-23.524-0.005005-4.941-0.207-10.849-0.44998-13.13-0.55902-5.228-1.203-11.537-1.81-17.681-0.258-2.633-0.65399-5.016-0.875-5.299-0.224-0.284-0.74298-1.55-1.158-2.818-1.426-4.355-5.476-9.014-8.842-10.172-2.843-0.98-8.162-1.263-25.309-1.368-9.374-0.054001-17.563-0.231-18.197-0.397-1.856-0.468-22.608-0.23399-38.008 0.43201-2.53 0.108-8.543 0.314-13.355 0.45799-4.815 0.144-9.481 0.452-10.368 0.69-2.07 0.55299-7.816 0.955-15.661 1.096-6.554 0.115-11.153 0.48901-14.973 1.218-1.266 0.237-3.546 0.43001-5.069 0.422-8.154-0.029999-16.603 0.50201-18.368 1.156-1.046 0.384-2.315 0.687-2.822 0.658-1.056-0.048004-14.626 0.435-20.613 0.73599-2.217 0.108-4.455 0.43001-4.975 0.707-0.519 0.276-2.334 0.472-4.032 0.433-1.698-0.041-4.54 0.053009-6.314 0.207-1.771 0.153-5.192 0.35701-7.598 0.451-8.07 0.304-13.581 0.862-14.511 1.466-1.014 0.65799-12.372 1.613-16.127 1.36-13.026-0.88701-21.546-0.53-32.777 1.373l-6.747 1.145-1.799 1.958c-2.23 2.429-6.455 8.705-7.516 11.174-0.438 1.016-1.007 2.251-1.269 2.754-0.262 0.5-1.166 3.066-2.009 5.698-2.476 7.723-2.922 12.902-2.939 34.161-0.007999 10.261-0.178 21.145-0.378 24.186-0.199 3.038-0.318 11.332-0.266 18.426 0.054001 7.094-0.149 16.84-0.448 21.653-0.302 4.814-0.54 12.172-0.529 16.354 0.015999 7.017 0.116 7.912 1.297 11.633 0.706 2.218 1.329 4.031 1.384 4.039 0.438 0.033997 10.231 1.959 13.919 2.737 2.534 0.53601 5.851 1.162 7.37 1.395 1.522 0.23099 3.284 0.54599 3.918 0.69998 0.633 0.155 2.641 0.479 4.458 0.72501 1.817 0.241 4.1 0.71399 5.067 1.042 0.97 0.33301 2.683 0.651 3.81 0.70602 1.126 0.061981 3.429 0.28198 5.115 0.491 1.689 0.21399 5.633 0.41998 8.763 0.45898 3.131 0.039001 5.735 0.11801 5.786 0.16299 0.20701 0.21201 14.547-0.036011 21.044-0.35998zm-12.654-176.11c1.007-2.453 1.098-3.38 1.248-13.109l0.164-10.47-2.169 0.266c-1.192 0.147-2.59 0.269-3.106 0.276-1.551 0.016998-2.087 2.004-2.342 8.646-0.129 3.423-0.331 6.948-0.443 7.832-0.271 2.106-0.207 8.364 0.089996 8.842 0.12801 0.207 1.411 0.369 2.853 0.365l2.623-0.007 1.082-2.641zm21.259 0.119c1.141-0.081009 4.354-0.272 7.141-0.438 2.788-0.15601 6.417-0.46201 8.063-0.675 1.646-0.207 6.414-0.405 10.595-0.44099 4.18-0.031998 14.753-0.26601 23.495-0.521 8.742-0.25301 20.248-0.567 25.568-0.705 5.321-0.13101 10.399-0.31801 11.289-0.40201 0.884-0.08699 7.001-0.312 13.588-0.49199 11.037-0.31201 15.901-0.47 19.261-0.634 1.109-0.056 1.45-0.435 2.444-2.712 0.63501-1.455 1.331-2.98 1.548-3.384 0.216-0.405 0.19501-3.076-0.045013-5.991-0.23798-2.887-0.40799-5.977-0.375-6.865 0.112-3.081 0.052002-3.224-1.381-3.224-0.89801 0-1.439-0.28-1.613-0.833-0.43301-1.357-1.631-12.312-1.453-13.262 0.091003-0.483 0.01001-3.332-0.17899-6.327-0.26202-4.143-0.52701-5.632-1.113-6.219-0.642-0.637-1.846-0.78001-7.089-0.826-3.477-0.034996-8.809 0.103-11.849 0.301-3.039 0.199-9.155 0.5-13.589 0.668-4.434 0.167-9.41 0.398-11.056 0.521-1.647 0.116-5.483 0.317-8.524 0.451-3.041 0.126-8.016 0.466-11.057 0.745-3.039 0.279-6.979 0.563-8.752 0.626-3.521 0.126-9.004 0.56699-10.828 0.865-5.316 0.882-8.566 1.204-9.562 0.956-0.651-0.16-3.029-0.031006-5.287 0.283-2.855 0.406-4.332 0.438-4.856 0.104-0.504-0.314-1.452-0.325-2.848-0.034004-1.151 0.241-4.374 0.504-7.162 0.577-2.784 0.073997-5.688 0.225-6.448 0.333-0.76001 0.105-1.638 0.228-1.953 0.266-0.41701 0.052002-0.571 1.578-0.56801 5.718 0 7.013-0.366 12.445-0.942 13.952-0.28799 0.76-0.91399 1.247-1.827 1.432-0.76399 0.15301-1.389 0.451-1.389 0.661 0 0.213-0.80501 0.62599-1.787 0.91899-2.607 0.78101-2.929 2.296-2.917 13.708 0.008011 9.183 0.033005 9.393 1.09 10.529 1.06 1.134 1.163 1.152 5.687 0.83301 2.535-0.17999 5.541-0.38599 6.68-0.463zm121.16-15.863c0-0.237 0.207-0.56 0.46201-0.717 0.254-0.15901 0.46298 0.041992 0.46298 0.43399 0 0.396-0.20898 0.718-0.46298 0.718-0.255-0.000992-0.46201-0.194-0.46201-0.435zm-2.769-2.091c0.66299-0.796 0.931-0.881 0.931-0.28999 0 0.228-0.34201 0.54199-0.759 0.704-0.633 0.242-0.66101 0.175-0.172-0.414zm-3.679-1.822c0-0.112 0.20801-0.33299 0.46201-0.489 0.254-0.158 0.461-0.067001 0.461 0.202 0 0.26901-0.207 0.489-0.461 0.489s-0.46201-0.094009-0.46201-0.202zm-0.92-1.778c0-0.371 0.33099-0.944 0.73401-1.285 0.643-0.532 0.71399-0.467 0.57599 0.48401-0.17102 1.196-1.31 1.89-1.31 0.801zm-2.304-0.787c0-0.248 0.32199-0.45799 0.71701-0.45799 0.396 0 0.59097 0.209 0.43399 0.45799-0.155 0.255-0.479 0.46201-0.71802 0.46201s-0.43298-0.20702-0.43298-0.46201zm27.325 17.141c0.616-0.679 0.70999-1.571 0.52399-4.951-0.12598-2.268-0.43198-5.25-0.67999-6.628-0.24701-1.376-0.45099-4.213-0.45099-6.311 0-2.088-0.15402-3.873-0.34702-3.96-0.18799-0.086998-2.209-0.048996-4.489 0.083l-4.146 0.253-0.09 1.609c-0.049988 0.88901-0.23099 3.271-0.41098 5.298-0.17502 2.03-0.285 5.644-0.24701 8.031 0.063995 3.877 0.198 4.508 1.239 5.873 1.146 1.504 1.232 1.532 4.76 1.532 2.87-0.001007 3.74-0.16501 4.338-0.82901zm43.917-1.008c0.97101-0.014999 1.126-2.341 0.659-10.064-1.126-18.729-1.36-37.367-0.84799-67.567 0.19699-11.577 0.146-20.136-0.12701-22.114-0.24698-1.773-0.57999-8.136-0.74597-14.141l-0.299-10.914-1.427 0.266c-0.784 0.144-1.629 0.455-1.879 0.682-0.54102 0.493-0.55499 32.927-0.022003 40.695 0.19 2.783 0.40701 5.998 0.482 7.139 1.009 15.29 1.207 58.219 0.311 66.567-0.966 8.958-0.95801 9.105 0.375 9.496 0.63501 0.188 1.565 0.252 2.073 0.148 0.50601-0.103 1.157-0.18999 1.448-0.19299zm-215.61-23.32c1.151-0.486 4.211-0.893 8.692-1.155l6.917-0.408 1.867-2.072c1.027-1.142 2.1-2.072 2.381-2.072 0.728 0 0.94701-0.935 0.595-2.534-0.168-0.762-0.287-3.352-0.26601-5.759 0.029007-3.602 0.199-4.602 0.955-5.643 1.083-1.491 5.253-2.96 8.749-3.076 1.267-0.041 2.882-0.15 3.589-0.244 2.103-0.284 7.759-1.193 10.232-1.645 1.267-0.231 3.856-0.543 5.758-0.687 1.901-0.144 5.654-0.451 8.342-0.676 2.688-0.227 5.499-0.314 6.249-0.195 0.75099 0.12 3.218-0.001999 5.481-0.27 2.261-0.269 8.881-0.59399 14.709-0.728 5.828-0.129 15.258-0.542 20.961-0.916 5.701-0.371 12.438-0.637 14.972-0.589 2.534 0.048996 9.48-0.045006 15.435-0.202 10.957-0.3 11.212-0.284 18.19 1.435 0.91498 0.227 1.483 0.721 1.697 1.473 0.17401 0.62399 0.54599 1.964 0.82901 2.977 0.53101 1.922 0.80899 5.663 0.88898 12.056l0.044 3.769 1.932 1.889c1.061 1.04 2.402 2.009 2.982 2.156 1.182 0.297 10.055-2.608 12.52-4.094 3.275-1.98 3.387-2.267 3.159-8.406-0.11902-3.275-0.60901-7.311-1.195-9.904-0.54901-2.407-1.207-5.518-1.469-6.911-0.56302-3.009-1.632-5.504-2.402-5.588-0.73801-0.088005-1.255-0.060005-9.536 0.482-3.926 0.256-9.318 0.474-11.977 0.487-2.662 0.011002-7.532 0.213-10.825 0.452-3.296 0.237-10.239 0.738-15.435 1.115-5.193 0.378-15.259 0.809-22.365 0.952-7.106 0.145-15.606 0.477-18.889 0.73299-3.281 0.258-10.32 0.567-15.641 0.688-5.321 0.12-11.436 0.515-13.589 0.878-3.435 0.578-7.836 0.881-11.517 0.792-0.634-0.014999-1.464 0.097-1.844 0.255-0.377 0.157-1.832 0.353-3.223 0.434-8.495 0.486-10.614 0.626-12.801 0.836-1.339 0.13-2.791 0.417-3.226 0.644-0.433 0.224-2.654 0.54501-4.934 0.715-4.259 0.311-11.33 1.33-14.929 2.152-1.23 0.276-2.625 1.042-3.536 1.938-1.395 1.372-1.561 1.869-2.275 6.775-0.426 2.913-0.968 5.667-1.209 6.113-0.239 0.44801-0.333 0.983-0.208 1.187 0.125 0.202 0.038002 1.697-0.19 3.324-0.401 2.832-0.361 3.038 0.974 5.12 0.768 1.193 1.64 2.268 1.939 2.39 0.301 0.123 0.572 0.241 0.606 0.259 0.029984 0.023003 0.85799-0.297 1.836-0.702zm213.86-108.16c2.294-1.691 4.681-4.304 4.681-5.124 0-1.243-1.254-3.248-2.985-4.769-3.575-3.138-7.603-1.037-8.632 4.496-0.729 3.909-0.146 5.711 1.96 6.085 2.849 0.512 3.468 0.425 4.976-0.688z"/>
   <path id="Speakers" d="m116.93 310.72c-0.12-0.12302-2.072-0.521-4.338-0.88699-7.624-1.226-14.264-3.394-18.86-6.158-6.205-3.733-8.773-6.198-13.939-13.348-0.826-1.139-2.328-3.066-3.339-4.269-1.011-1.21-1.839-2.43-1.839-2.71 0-0.27899-0.462-1.806-1.028-3.391-0.95-2.663-1.026-3.677-1.019-13.477 0.007996-9.296 0.128-11.062 0.988-14.373 0.539-2.08 1.277-4.359 1.642-5.065 0.362-0.71399 1.131-2.744 1.707-4.517 0.574-1.774 1.849-4.905 2.832-6.962 0.981-2.058 1.788-3.861 1.788-4.014 0-0.63699 5.205-9.228 7.91-13.064 6.162-8.735 15.429-14.71 30.786-19.851 4.016-1.344 5.701-1.655 9.905-1.833 5.529-0.239 13.351 0.72 16.585 2.026 7.135 2.884 8.707 3.898 13.374 8.619 5.017 5.079 10.042 11.804 13.22 17.704 0.692 1.279 1.8 3.123 2.463 4.094 2.371 3.467 3.747 6.907 4.756 11.898 0.565 2.789 1.329 6.312 1.694 7.83 2.013 8.361 1.554 14.116-1.973 24.647-1.858 5.551-2.34 6.574-4.891 10.363-5.438 8.085-14.198 15.332-24.958 20.653-4.749 2.351-11.83 4.744-15.201 5.136-1.267 0.14801-3.237 0.46301-4.378 0.69501-2.132 0.444-13.494 0.647-13.887 0.254zm18.745-10.603c6.927-1.193 13.074-3.21 15.305-5.014 0.69099-0.56198 1.822-1.373 2.507-1.807 1.658-1.038 6.351-5.317 9.925-9.039 3.674-3.828 7.861-12.052 10.813-21.231 1.18-3.669 0.28101-15.201-1.583-20.268-0.511-1.394-1.196-3.573-1.52-4.841-1.203-4.682-2.27-7.19-4.238-9.962-0.83299-1.175-1.516-2.267-1.516-2.417 0-0.722-6.593-9.131-8.522-10.874-5.867-5.294-13.345-9.386-19.005-10.396-5.009-0.892-7.536-0.819-10.347 0.30701-1.34 0.536-4.151 1.561-6.251 2.278-2.098 0.717-5 2.019-6.45 2.89-1.448 0.87199-3.743 2.139-5.102 2.818-3.688 1.852-5.568 3.36-8.847 7.089-4.488 5.112-4.722 5.435-8.052 11.129-4.277 7.318-6.073 10.966-6.456 13.13-0.179 1.012-0.725 3.398-1.209 5.298-0.629 2.457-0.862 4.855-0.817 8.294 0.037003 2.659 0.045998 5.344 0.021004 5.967-0.025002 0.62 0.14999 4.079 0.393 7.685 0.382 5.706 0.584 6.788 1.56 8.332 1.817 2.885 7.597 8.94 14.359 15.064 3.548 3.214 8.948 4.871 15.838 4.871 1.518 0 3.34 0.224 4.052 0.48999 1.254 0.479 5.293 1.187 7.423 1.297 0.578 0.027985 4.052-0.45999 7.719-1.09zm-16.432-29.631c-4.183-1.111-6.086-2.533-8.153-6.074-2.573-4.415-2.876-5.322-3.171-9.518-0.218-3.052-0.104-4.26 0.565-6.019 2.137-5.626 6.479-9.365 13.734-11.828 2.733-0.92799 4.865-0.933 8.892-0.021988 2.827 0.638 3.511 1.026 6.271 3.57 5.16 4.756 5.878 7.757 4.559 19.091-0.11499 0.98602-3.357 4.263-6.26 6.321-3.654 2.587-6.012 3.748-8.802 4.332-1.254 0.263-2.797 0.58499-3.431 0.71899-0.634 0.13202-2.527-0.12698-4.204-0.57199zm11.804-11.272c2.536-1.421 3.625-3.784 3.66-7.937 0.033997-4.197-1.219-7.331-2.772-6.939-0.564 0.14101-1.731-0.041-2.597-0.40399-3.343-1.396-8.306 1.168-10.533 5.444-1.344 2.573-0.912 4.974 1.365 7.572 2.876 3.288 7.38 4.222 10.877 2.264zm181.51 42.921c-3.548-0.16199-8.108-0.612-10.137-1.008-2.024-0.392-5.123-0.952-6.881-1.238-1.759-0.28601-4.662-1.05-6.449-1.697-1.789-0.64401-4.683-1.673-6.431-2.287-1.747-0.607-4.419-1.859-5.936-2.779-3.289-2.003-8.28-6.859-10.33-10.058-0.815-1.269-2.108-3.155-2.878-4.189-1.549-2.086-5.532-9.759-5.543-10.673-0.002014-0.32199-0.401-1.459-0.88602-2.534-2.245-4.999-3.04-8.696-2.992-13.944 0.024002-2.798 0.298-6.216 0.606-7.605 1.567-7.005 2.068-8.706 3.257-11.036 0.711-1.396 1.571-3.157 1.914-3.918 1.734-3.852 4.896-8.085 11.004-14.735 1.398-1.524 3.248-3.757 4.11-4.965 0.86301-1.204 2.413-2.69 3.446-3.307 1.03-0.61499 2.462-1.749 3.174-2.523 1.258-1.36 7.708-5.917 10.621-7.502 3.447-1.875 13.768-5.895 15.144-5.897 0.57101-0.002991 1.662-0.33299 2.42-0.73399 1.759-0.935 13.477-1.469 15.894-0.73201 5.996 1.834 12.241 4.36 13.772 5.579 0.98801 0.77899 2.005 1.416 2.262 1.416 2.341 0 11.485 11.185 14.768 18.061 1.048 2.197 1.908 4.128 1.908 4.282 0 0.15799 0.836 2.034 1.854 4.172 1.816 3.806 2.649 6.652 3.688 12.605 0.73999 4.244 1.077 17.208 0.54599 20.999-0.608 4.344-2.356 10.888-3.146 11.787-0.353 0.39999-0.53299 0.83298-0.40198 0.966 0.31299 0.31299-5.08 11.259-6.429 13.045-0.573 0.76102-1.368 2.002-1.77 2.767-1.178 2.231-7.737 8.712-10.234 10.111-1.269 0.711-2.851 1.666-3.519 2.127-1.841 1.269-6.675 3.176-10.485 4.135-1.875 0.46698-3.532 0.83099-3.686 0.80399-0.15201-0.026001-0.59 0.071014-0.96899 0.21899-1.266 0.487-4.774 0.577-11.285 0.28601zm7.601-10.025c5.843-1.337 9.177-1.915 11.02-1.908 4.963 0.014984 14.307-7.684 18.176-14.973 0.67102-1.265 1.403-2.607 1.632-2.988 0.893-1.503 3.188-6.783 3.702-8.522 0.29999-1.011 0.73801-2.261 0.97601-2.766 0.23398-0.50403 0.82098-2.522 1.3-4.478 0.85998-3.493 0.85998-3.68 0.007996-9.905-1.569-11.479-2.526-15.537-5.031-21.317-0.71201-1.647-1.678-4-2.144-5.232-0.465-1.227-1.652-3.16-2.635-4.287-2.665-3.057-12.552-11.316-17.357-14.505-4.916-3.264-7.024-3.723-15.163-3.31-7.075 0.36-11.659 1.841-16.744 5.411-1.475 1.035-3.029 2.088-3.454 2.341-2.456 1.467-10.398 7.807-13.79 11.009-11.105 10.496-14.569 15.908-16.141 25.238-1.471 8.734-0.96002 12.049 3.365 21.81 3.445 7.781 5.251 10.859 7.178 12.23 0.72998 0.52002 2.274 2.176 3.431 3.682 1.16 1.503 2.388 2.735 2.734 2.735 0.34302 0 0.69202 0.177 0.77802 0.396 0.20599 0.52899 6.28 4.165 10.289 6.166 3.65 1.815 7.062 3.009 10.257 3.586 2.761 0.49701 14.87 0.216 17.613-0.41299zm-17.28-29.45c-1.868-0.88-5.328-4.171-6.486-6.156-2.424-4.169-3.036-8.592-1.845-13.288 1.165-4.584 2.516-6.894 5.341-9.142 1.395-1.104 3.004-2.402 3.574-2.882 0.57101-0.48399 1.197-0.875 1.388-0.875 0.19101 0 1.071-0.37799 1.955-0.84299 4.831-2.538 9.011-2.473 14.734 0.21999 4.237 1.998 8.048 5.366 9.515 8.415 0.89902 1.877 1.268 7.784 0.53699 8.666-0.258 0.312-1.241 2.075-2.186 3.922-2.929 5.726-5.731 9.151-8.708 10.649-1.545 0.772-3.554 1.372-4.917 1.454-1.267 0.082977-4.272 0.28198-6.68 0.439-3.735 0.24799-4.647 0.16498-6.222-0.57901zm15.092-8.758c0.82098-0.48001 1.283-1.156 1.31-1.918 0.23999-6.28-1.762-15.066-3.482-15.271-0.26199-0.033997-1.617-0.016006-3.01 0.031998-5.328 0.198-9.82 5.078-10.325 11.226-0.31601 3.836 0.15399 4.551 3.793 5.748 4.867 1.606 9.193 1.671 11.714 0.183z"/>
   <path id="Tape_Deck" d="m193.51 292.56c-1.949-0.54498-2.899-2.37-2.818-5.407 0.076004-2.716 0.087997-9.416 0.046997-23.674-0.016998-6.626-0.18199-8.277-1.278-12.898-1.024-4.313-1.254-6.349-1.235-10.957l0.021-5.657 1.556-1.303c1.202-1 1.829-1.227 2.728-0.978 0.645 0.17799 1.689 0.155 2.322-0.050003 0.633-0.204 9.445-1.233 19.581-2.282 15.976-1.659 19.317-1.879 25.126-1.652 3.685 0.145 7.042 0.39201 7.461 0.55301 1.087 0.41899 1.643 2.551 1.979 7.577 0.16301 2.403 0.38 4.511 0.483 4.679 0.10501 0.16701 0.296 3.8 0.42401 8.068 0.12799 4.271 0.336 8.798 0.465 10.063 0.301 3.007 0.65199 9.265 0.898 15.984 0.204 5.619 0.551 8.356 1.228 9.665 0.22 0.42499 0.268 1.109 0.10901 1.519-0.352 0.923-5.853 3.475-7.014 3.251-0.465-0.09201-2.278 0.224-4.026 0.69699-2.425 0.65201-4.93 0.86801-10.552 0.90399-18.395 0.12802-23.549 0.36102-29.25 1.327-6.102 1.033-6.508 1.06-8.255 0.57098zm23.453-7.002c12.657 0.285 23.398-0.28 26.26-1.38 0.63399-0.241 1.656-0.534 2.27-0.65298 2.099-0.40402 2.156-1.124 0.96201-12.446-0.47101-4.442-0.696-13.709-0.39999-16.35 0.041992-0.382 0.04599-2.209 0.005997-4.064l-0.071-3.365-10.021 0.22c-5.509 0.12199-11.573 0.43999-13.475 0.70999-1.899 0.27-4.386 0.602-5.529 0.73801-1.139 0.138-2.589 0.34299-3.222 0.45999-0.633 0.11-2.916 0.317-5.07 0.45401-2.152 0.14-4.64 0.36099-5.529 0.49699-5.149 0.784-7.657 1.286-8.089 1.627-0.32101 0.25101-0.37601 1.473-0.166 3.513 0.181 1.72 0.45999 4.574 0.61899 6.352 0.157 1.771 0.44501 4.676 0.634 6.446 0.409 3.805 0.37201 8.231-0.11 13.448l-0.349 3.773 2.232 0.178c1.23 0.10001 5.761 0.095001 10.066-0.006989 4.307-0.096008 8.349-0.16602 8.982-0.151zm-9.211-9.23c-2.035-0.80499-4.652-2.843-5.329-4.155-1.929-3.728 0.44-9.439 4.842-11.684 1.32-0.677 2.093-0.741 4.607-0.414 3.857 0.509 16.705 0.52899 21.255 0.027985 6.095-0.66299 10.927 1.462 11.947 5.254 0.71001 2.634-0.062988 4.864-2.705 7.813l-2.257 2.52-4.163-0.021c-6.052-0.031006-8.266-1.466-9.095-5.883-0.25499-1.371-0.48999-1.69-1.076-1.457-0.418 0.16199-1.834 0.40698-3.158 0.551-1.927 0.20499-2.471 0.448-2.714 1.229-0.39099 1.256-2.655 3.856-4.753 5.451-1.294 0.98801-2.136 1.255-3.948 1.241-1.266-0.013-2.82-0.22198-3.453-0.47299zm3.931-5.023c2.921-1.109 4.113-5.222 1.862-6.426-0.636-0.33902-1.631-0.46701-2.315-0.293-1.275 0.31699-4.86 3.307-4.86 4.052 0 0.703 2.625 3.134 3.39 3.134 0.38202 0 1.248-0.211 1.923-0.46701zm24.687-0.291c0.34799-0.41998 0.974-1.497 1.392-2.389 0.686-1.471 0.689-1.744 0.059998-2.707-1.014-1.546-2.487-1.74-4.68-0.62598-2.533 1.296-2.622 2.984-0.268 5.051 1.842 1.616 2.589 1.759 3.496 0.67099zm-31.527-27.295c2.184-0.105 1.768-7.637-0.44299-7.978-0.563-0.087006-1.336-0.022995-1.718 0.148-1.046 0.47-6.077 1.33-7.766 1.33h-1.495l0.102 2.65c0.168 4.353-0.175 4.101 5.391 3.991 2.707-0.055008 5.374-0.11801 5.929-0.14101zm19.901-0.789l2.485-0.267-0.3-3.756c-0.47899-6.056-0.429-5.971-3.466-5.655-1.422 0.14999-4.835 0.61299-7.586 1.029l-5.003 0.763 0.279 1.66c0.15701 0.91901 0.414 2.743 0.574 4.064 0.23801 1.973 0.461 2.418 1.266 2.529 1.327 0.18999 8.697-0.042007 11.751-0.367zm20.505-4.789c-0.168-2.152-0.37-3.986-0.444-4.077-0.164-0.18799-4.749-0.857-8.756-1.271l-2.797-0.293 0.161 2.938c0.091995 1.61 0.276 3.834 0.41299 4.933l0.252 1.998 5.738-0.155 5.739-0.154-0.306-3.919z"/>
   <path id="Buttons" d="m185.8 224.08c-3.953-0.52699-6.918-1.714-7.253-2.908-0.47101-1.68-0.74301-4.745-0.96301-10.798-0.12399-3.492-0.467-6.8-0.75899-7.345-1.076-2.017 0.73299-2.405 13.233-2.843 2.049-0.069992 3.932-0.255 4.182-0.41299 0.25-0.15401 3.342-0.30701 6.87-0.339 3.524-0.035004 7.997-0.33299 9.935-0.66499 1.94-0.33601 4.323-0.55801 5.298-0.494 0.976 0.05899 4.261-0.15001 7.301-0.47 3.041-0.32001 9.054-0.82201 13.36-1.112 8.102-0.545 9.827-0.67801 15.096-1.158 3.28-0.301 4.945-0.035004 4.945 0.787 0 0.274 0.302 0.726 0.67401 1.005 0.37698 0.28699 0.77899 1.588 0.905 2.95 0.129 1.343 0.36398 2.654 0.526 2.915 1.28 2.068 1.086 12.889-0.27499 15.38-0.72601 1.318-0.92801 1.393-4.635 1.674-2.133 0.16101-9.163 0.54201-15.623 0.843-16.475 0.76601-26.716 1.338-28.333 1.585-0.761 0.10899-3.765 0.444-6.681 0.73799-2.914 0.293-5.61 0.642-5.989 0.77901-1.228 0.45-8.093 0.381-11.814-0.11101zm6.866-6.162c0.437-0.40201 0.659-11.391 0.239-11.811-0.171-0.175-1.617-0.063004-3.212 0.245-1.596 0.304-3.607 0.52901-4.468 0.494l-1.566-0.06 0.295 3.129c0.16299 1.721 0.297 4.305 0.299 5.745 0.003006 2.622 0.003006 2.622 1.5 2.767 2.083 0.19701 6.492-0.125 6.913-0.509zm20.269-1.11c1.244 0.015991 1.267-0.029999 1.359-3.027 0.10199-3.426 0.069992-4.985-0.164-7.649-0.183-2.104 0.21899-2.023-7.3-1.453-5.736 0.435-8.292 0.829-8.292 1.284 0 0.22099 0.214 0.399 0.48001 0.399 0.30499 0 0.45099 1.559 0.399 4.26-0.046005 2.344-0.054001 4.857-0.021011 5.58l0.061 1.321 6.105-0.364c3.357-0.20499 6.674-0.36198 7.373-0.351zm21.962-0.763l1.955-0.527-0.249-2.386c-0.13701-1.316-0.377-3.843-0.53801-5.619-0.465-5.237 0.21901-4.804-7.259-4.564-7.942 0.25-8.831 0.405-8.335 1.475 0.198 0.43201 0.442 3.213 0.53799 6.174l0.176 5.384 1.23 0.146c3.675 0.42099 10.775 0.37599 12.482-0.083008zm14.995-1.669c3.48-0.522 5.487-1.034 5.639-1.432 0.13399-0.338-0.024002-2.218-0.34401-4.178-0.321-1.956-0.677-4.452-0.795-5.543-0.16499-1.565-0.36299-1.932-0.92799-1.716-0.39601 0.151-2.87 0.28101-5.5 0.284-4.67 0.014008-4.791 0.03801-5.221 1.162-0.28 0.746-0.265 1.915 0.046997 3.31 0.26901 1.19 0.46001 3.616 0.427 5.39-0.078995 4.175-0.098999 4.062 0.63901 3.78 0.34698-0.13599 3.063-0.60899 6.036-1.057z"/>
  </g>
 </switch>
</svg>
