<?xml version="1.0" encoding="UTF-8" standalone="no"?>
<svg viewBox="0 0 502.50137 513.30786" xmlns="http://www.w3.org/2000/svg">
<g transform="translate(-118.87129,-196.84911)">
<path d="m229.43594,366.64789h278.27101a95.15022,84.28572 0 0,1 95.15022,84.28572v137.14285a95.15022,84.28572 0 0,1 -95.15022,84.28572h-278.27101a95.15022,84.28572 0 0,1 -95.15022-84.28572v-137.14285a95.15022,84.28572 0 0,1 95.15022-84.28572"/>
<path d="m242.42996,381.19492h249.42583a85.28709,75.54879 0 0,1 85.28709,75.54879v122.92683a85.28709,75.54879 0 0,1 -85.28709,75.54879h-249.42583a85.28709,75.54879 0 0,1 -85.28709-75.54879v-122.92683a85.28709,75.54879 0 0,1 85.28709-75.54879" fill="#fff"/>
<path d="m445.71428,823.79077a51.42857,51.42857 0 1,1 -102.85714,0 51.42857,51.42857 0 1,1 102.85714,0z" transform="matrix(.40885,0,0,.40885,328.66336,256.07089)"/>
<path d="m445.71428,823.79077a51.42857,51.42857 0 1,1 -102.85714,0 51.42857,51.42857 0 1,1 102.85714,0z" fill="#fff" transform="matrix(.29528,0,0,.29528,374.61,350.79585)"/>
<path d="m445.71428,823.79077a51.42857,51.42857 0 1,1 -102.85714,0 51.42857,51.42857 0 1,1 102.85714,0z" transform="matrix(.40885,0,0,.40885,263.81464,256.07089)"/>
<path d="m445.71428,823.79077a51.42857,51.42857 0 1,1 -102.85714,0 51.42857,51.42857 0 1,1 102.85714,0z" fill="#fff" transform="matrix(.29528,0,0,.29528,309.76128,350.79585)"/>
<g transform="translate(14.28571,-11.42857)">
<path d="m398.24793,449.505h90.72882a31.02323,33.87183 0 0,1 31.02323,33.87183v55.11347a31.02323,33.87183 0 0,1 -31.02323,33.87183h-90.72882a31.02323,33.87183 0 0,1 -31.02323-33.87183v-55.11347a31.02323,33.87183 0 0,1 31.02323-33.87183"/>
<path d="m402.48456,455.35098h81.32401a27.80741,30.36073 0 0,1 27.80741,30.36073v49.4005a27.80741,30.36073 0 0,1 -27.80741,30.36073h-81.32401a27.80741,30.36073 0 0,1 -27.80741-30.36073v-49.4005a27.80741,30.36073 0 0,1 27.80741-30.36073" fill="#fff"/>
</g>
<g transform="translate(0,.78131)">
<path d="m427.42473,458.12048h59.19378a20.24034,22.09884 0 0,1 20.24034,22.09884v35.95742a20.24034,22.09884 0 0,1 -20.24034,22.09884h-59.19378a20.24034,22.09884 0 0,1 -20.24034-22.09884v-35.95742a20.24034,22.09884 0 0,1 20.24034-22.09884"/>
<path d="m428.33284,459.59061h56.76981a19.41151,21.10055 0 0,1 19.41151,21.10055v34.33311a19.41151,21.10055 0 0,1 -19.41151,21.10055h-56.76981a19.41151,21.10055 0 0,1 -19.41151-21.10055v-34.33311a19.41151,21.10055 0 0,1 19.41151-21.10055" fill="#fff"/>
</g>
<path d="m385.96707,497.6322h147.66756v3.12524h-147.66756z"/>
<path d="m-855.77383-614.84302a.65036,.96886 0 0,1 .65036.96886v59.10058a.65036,.96886 0 0,1 -.65036.96886 .65036,.96886 0 0,1 -.65036-.96886v-59.10058a.65036,.96886 0 0,1 .65036-.96886" transform="matrix(-3.6172866e-2,-.99935,-.76727,.64133,0,0)"/>
<path d="m-1026.85072-508.70734h.05512a.73628,.73628 0 0,1 .73628.73628v44.9128a.73628,.73628 0 0,1 -.73628.73628h-.05512a.73628,.73628 0 0,1 -.73628-.73628v-44.9128a.73628,.73628 0 0,1 .73628-.73628" transform="matrix(-.28998,-.95703,-.31467,.9492,0,0)"/>
<path d="m224.5424,412.36215h92.4256a31.60342,59.07878 0 0,1 31.60342,59.07878v96.12815a31.60342,59.07878 0 0,1 -31.60342,59.07878h-92.4256a31.60342,59.07878 0 0,1 -31.60342-59.07878v-96.12815a31.60342,59.07878 0 0,1 31.60342-59.07878"/>
<path d="m229.04113,422.55862h83.3797a28.51032,52.95476 0 0,1 28.51032,52.95476v86.16368a28.51032,52.95476 0 0,1 -28.51032,52.95476h-83.3797a28.51032,52.95476 0 0,1 -28.51032-52.95476v-86.16368a28.51032,52.95476 0 0,1 28.51032-52.95476" fill="#fff"/>
<path d="m198.11882,465.21005h144.98695v4.5027h-144.98695z"/>
<path d="m197.21828,491.32571h144.98695v4.5027h-144.98695z"/>
<path d="m197.21828,516.54083h144.98695v4.5027h-144.98695z"/>
<path d="m197.21828,541.75598h144.98695v4.5027h-144.98695z"/>
<path d="m197.21828,565.58826h144.98695v4.5027h-144.98695z"/>
<path d="m261.15662,679.08832a29.71782,13.95837 0 1,1 -59.43565,0 29.71782,13.95837 0 1,1 59.43565,0z" transform="matrix(1.06061,0,0,1.29032,-12.22551,-193.10224)"/>
<path d="m261.15662,679.08832a29.71782,13.95837 0 1,1 -59.43565,0 29.71782,13.95837 0 1,1 59.43565,0z" transform="matrix(1.06061,0,0,1.29032,260.63813,-191.30116)"/>
<path d="m-30.92703,303.4187a3.31601,69.86484 0 0,1 3.31601,69.86484v89.57556a3.31601,69.86484 0 0,1 -3.31601,69.86484 3.31601,69.86484 0 0,1 -3.31601-69.86484v-89.57556a3.31601,69.86484 0 0,1 3.31601-69.86484" transform="matrix(.8946,-.44687,.73608,.67689,0,0)"/>
<path d="m-549.22617-45.40287a3.31601,69.86484 0 0,1 3.31601,69.86484v89.57556a3.31601,69.86484 0 0,1 -3.31601,69.86484 3.31601,69.86484 0 0,1 -3.31601-69.86484v-89.57556a3.31601,69.86484 0 0,1 3.31601-69.86484" transform="matrix(-.8946,-.44687,-.73608,.67689,0,0)"/>
</g>
</svg>
