<?xml version="1.0" encoding="UTF-8" standalone="no"?>
<svg viewBox="0 0 375 450" xmlns="http://www.w3.org/2000/svg">
<path d="m118.08411,290.55153c-6.52193,0-11.77161,5.44309-11.77161,12.20527v51.44417c0,6.7622 5.24969,12.20528 11.77161,12.20528h2.86546v-64.96098h307.32675v64.96098h2.86546c6.52192,0 11.77159-5.44309 11.77161-12.20528v-51.44417c0-6.76219-5.24969-12.20527-11.77161-12.20527h-313.05767z" transform="translate(-87.10630,-161.1052)"/>
<path d="m88.58268,343.70078h372.04724v265.74802h-372.04724z" transform="translate(-87.10630,-161.1052)"/>
<path d="m108.2074,432.28381h334.70599v160.02107h-334.70599z" fill="#969696" stroke="#fff" stroke-linecap="round" stroke-linejoin="round" stroke-width="3.75" transform="translate(-87.10630,-161.1052)"/>
<path d="m159.44881,387.99246a26.5748,26.5748 0 1,1 -53.1496,0 26.5748,26.5748 0 1,1 53.1496,0z" fill="#fff" transform="translate(194.4833,-162.9802)"/>
<path d="m159.44881,387.99246a26.5748,26.5748 0 1,1 -53.1496,0 26.5748,26.5748 0 1,1 53.1496,0z" fill="#fff" transform="translate(-85.23129,-162.9802)"/>
<path d="m177.16536,363.20294h194.8819v33.73751h-194.8819z" fill="#969696" stroke="#fff" stroke-linecap="round" stroke-linejoin="round" stroke-width="3.75" transform="translate(-87.10630,-161.1052)"/>
<path d="m70.86614,343.70113v-170.91395" fill="none" stroke="#000" stroke-linecap="round" stroke-linejoin="round" stroke-width="7.5" transform="translate(-3.540039e-7,-161.1052)"/>
<path d="m81.61149,173.50696a10.74535,10.74535 0 1,1 -21.4907,0 10.74535,10.74535 0 1,1 21.4907,0z" transform="translate(-3.540039e-7,-161.1052)"/>
<path d="m106.29921,371.07674v17.99" fill="none" stroke="#000" stroke-width="1.51387" transform="translate(6.2008,-161.1052)"/>
<path d="m131.29921,371.07674v17.99" fill="none" stroke="#000" stroke-width="1.51387" transform="translate(6.2008,-161.1052)"/>
<path d="m156.29921,371.07674v17.99" fill="none" stroke="#000" stroke-width="1.51387" transform="translate(6.2008,-161.1052)"/>
<path d="m181.29921,371.07674v17.99" fill="none" stroke="#000" stroke-width="1.51387" transform="translate(6.2008,-161.1052)"/>
<path d="m206.29921,371.07674v17.99" fill="none" stroke="#000" stroke-width="1.51387" transform="translate(6.2008,-161.1052)"/>
<path d="m231.29921,371.07674v17.99" fill="none" stroke="#000" stroke-width="1.51387" transform="translate(6.2008,-161.1052)"/>
<path d="m256.29921,371.07674v17.99" fill="none" stroke="#000" stroke-width="1.51387" transform="translate(6.2008,-161.1052)"/>
<path d="m117.50001,374.39645v11.35087" fill="none" stroke="#000" stroke-width="1.51387" transform="translate(-3.540039e-7,-161.1052)"/>
<path d="m142.50001,374.39645v11.35087" fill="none" stroke="#000" stroke-width="1.51387" transform="translate(-3.540039e-7,-161.1052)"/>
<path d="m167.50001,374.39645v11.35087" fill="none" stroke="#000" stroke-width="1.51387" transform="translate(-3.540039e-7,-161.1052)"/>
<path d="m192.50001,374.39645v11.35087" fill="none" stroke="#000" stroke-width="1.51387" transform="translate(-3.540039e-7,-161.1052)"/>
<path d="m217.50001,374.39645v11.35087" fill="none" stroke="#000" stroke-width="1.51387" transform="translate(-3.540039e-7,-161.1052)"/>
<path d="m242.50001,374.39645v11.35087" fill="none" stroke="#000" stroke-width="1.51387" transform="translate(-3.540039e-7,-161.1052)"/>
<path d="m267.50001,374.39645v11.35087" fill="none" stroke="#000" stroke-width="1.51387" transform="translate(-3.540039e-7,-161.1052)"/>
<path d="m122.50001,374.39645v11.35087" fill="none" stroke="#000" stroke-width="1.51387" transform="translate(-3.540039e-7,-161.1052)"/>
<path d="m147.50001,374.39645v11.35087" fill="none" stroke="#000" stroke-width="1.51387" transform="translate(-3.540039e-7,-161.1052)"/>
<path d="m172.50001,374.39645v11.35087" fill="none" stroke="#000" stroke-width="1.51387" transform="translate(-3.540039e-7,-161.1052)"/>
<path d="m197.50001,374.39645v11.35087" fill="none" stroke="#000" stroke-width="1.51387" transform="translate(-3.540039e-7,-161.1052)"/>
<path d="m222.50001,374.39645v11.35087" fill="none" stroke="#000" stroke-width="1.51387" transform="translate(-3.540039e-7,-161.1052)"/>
<path d="m247.50001,374.39645v11.35087" fill="none" stroke="#000" stroke-width="1.51387" transform="translate(-3.540039e-7,-161.1052)"/>
<path d="m272.50001,374.39645v11.35087" fill="none" stroke="#000" stroke-width="1.51387" transform="translate(-3.540039e-7,-161.1052)"/>
<path d="m127.50001,374.39645v11.35087" fill="none" stroke="#000" stroke-width="1.51387" transform="translate(-3.540039e-7,-161.1052)"/>
<path d="m152.50001,374.39645v11.35087" fill="none" stroke="#000" stroke-width="1.51387" transform="translate(-3.540039e-7,-161.1052)"/>
<path d="m177.50001,374.39645v11.35087" fill="none" stroke="#000" stroke-width="1.51387" transform="translate(-3.540039e-7,-161.1052)"/>
<path d="m202.50001,374.39645v11.35087" fill="none" stroke="#000" stroke-width="1.51387" transform="translate(-3.540039e-7,-161.1052)"/>
<path d="m227.50001,374.39645v11.35087" fill="none" stroke="#000" stroke-width="1.51387" transform="translate(-3.540039e-7,-161.1052)"/>
<path d="m252.50001,374.39645v11.35087" fill="none" stroke="#000" stroke-width="1.51387" transform="translate(-3.540039e-7,-161.1052)"/>
<path d="m277.50001,374.39645v11.35087" fill="none" stroke="#000" stroke-width="1.51387" transform="translate(-3.540039e-7,-161.1052)"/>
<path d="m132.50001,374.39645v11.35087" fill="none" stroke="#000" stroke-width="1.51387" transform="translate(-3.540039e-7,-161.1052)"/>
<path d="m157.50001,374.39645v11.35087" fill="none" stroke="#000" stroke-width="1.51387" transform="translate(-3.540039e-7,-161.1052)"/>
<path d="m182.50001,374.39645v11.35087" fill="none" stroke="#000" stroke-width="1.51387" transform="translate(-3.540039e-7,-161.1052)"/>
<path d="m207.50001,374.39645v11.35087" fill="none" stroke="#000" stroke-width="1.51387" transform="translate(-3.540039e-7,-161.1052)"/>
<path d="m232.50001,374.39645v11.35087" fill="none" stroke="#000" stroke-width="1.51387" transform="translate(-3.540039e-7,-161.1052)"/>
<path d="m257.50001,374.39645v11.35087" fill="none" stroke="#000" stroke-width="1.51387" transform="translate(-3.540039e-7,-161.1052)"/>
<path d="m97.50001,374.39645v11.35087" fill="none" stroke="#000" stroke-width="1.51387" transform="translate(-3.540039e-7,-161.1052)"/>
<path d="m102.50001,374.39645v11.35087" fill="none" stroke="#000" stroke-width="1.51387" transform="translate(-3.540039e-7,-161.1052)"/>
<path d="m107.50001,374.39645v11.35087" fill="none" stroke="#000" stroke-width="1.51387" transform="translate(-3.540039e-7,-161.1052)"/>
<path d="m220.67657,369.28806h7.72474v27.56268h-7.72474z" fill="#fff" transform="translate(-3.540039e-7,-161.1052)"/>
</svg>
