<?xml version="1.0" encoding="UTF-8" standalone="no"?>
<svg viewBox="0 0 553.59906 377.45309" xmlns="http://www.w3.org/2000/svg">
<g transform="translate(-226.72911,-161.75677)">
<path d="m360.15079,278.33521 170.71429-7.85715c3.42115.62013 6.73579,1.42665 6.42857,8.57143l1.68112,158.02303c-.03257,6.71002-1.6416,15.01905-7.35208,15.41842-14.72534,1.60078-172.57191,11.48427-174.32904,11.55855-6.76051.2858-7.84471-7.59827-7.85714-10l-.86508-167.14286c1.04362-3.06483 2.9841-10.16668 11.57936-8.57142z" fill="none" stroke="#000" stroke-linecap="round" stroke-linejoin="round" stroke-width="4"/>
<path d="m231.32493,211.74409c.08001-21.81542 11.4698-29.23658 26.26397-32.32488l411.63717-16.16244 88.82098,27.96302c11.21646,3.53121 20.86537,18.25956 20.78056,39.7172l-1.01015,255.56859c.97022,5.63162.85581,10.78119-10.10153,11.11168l-455.99721,39.10009c-4.18079.35848-13.0106,3.52526-20.79479-3.74475-18.89703-17.64878-44.7507-41.08966-56.33395-51.51778-3.02307-2.72161-5.94101-5.85666-5.70377-14.85642-1.7023-114.55758.18602-146.58638 2.43872-254.85431z" fill="none" stroke="#000" stroke-linecap="round" stroke-linejoin="round" stroke-width="3"/>
<path d="m567.114,308.71874c0,0 164.95385-7.10555 167.77198-7.57615 4.59032-.76654 9.33804,2.8296 9.09137,8.08122l-.50508,70.2056c-2.07555,5.27173-5.95043,5.74526-9.09137,6.06092l-167.09359,11.44344c-5.85047.12627-6.89903-8.21386-7.15772-11.44344l-.59174-67.68022c-.33276-6.67295 3.47898-8.45125 7.57615-9.09137z" fill="none" stroke="#000" stroke-linecap="round" stroke-linejoin="round" stroke-width="3"/>
<path d="m251.42857,181.23734c0-2.85714 46.42858,35.35714 46.42858,35.35714 6.0084,9.56582 11.42856,19.89253 11.42856,37.5v283.57143" fill="none" stroke="#000" stroke-linecap="round" stroke-linejoin="round" stroke-width="3"/>
<path d="m240.35714,188.73734c0,0 28.26468,16.20076 36.78572,26.42857 9.33836,11.20884 18.47897,18.2704 19.28571,44.64286 1.75569,57.39388-1.42857,274.28571-1.42857,274.28571" fill="none" stroke="#000" stroke-width="3"/>
<path d="m234.91451,193.55876c0,0 28.26468,15.78192 36.78572,25.74531 9.33836,10.91905 18.47897,17.79805 19.28571,43.4887 1.75569,55.91006-1.42857,267.19454-1.42857,267.19454" fill="none" stroke="#000" stroke-width="2.5"/>
<path d="m232.77165,199.80878c0,0 25.76778,15.36307 33.53608,25.06204 8.51341,10.62927 16.84654,17.32571 17.58201,42.33454 1.60059,54.42625-1.30237,260.10339-1.30237,260.10339" fill="none" stroke="#000" stroke-width="2.5"/>
<path d="m747.87003,199.44894c8.87063,6.61197 18.83575,13.32368 18.83575,43.60988v254.43589" fill="none" stroke="#000" stroke-linecap="round" stroke-linejoin="round" stroke-width="2"/>
<path d="m762.47243,203.8739c5.19089,3.73028 10.25382,14.44237 10.51687,30.27914 0,0 .71428,229.85537.35714,259.67861" fill="none" stroke="#000" stroke-linecap="round" stroke-linejoin="round" stroke-width="2"/>
<path d="m765.81516,482.76955-456.82804,35.75634" fill="none" stroke="#000" stroke-linecap="round" stroke-linejoin="round" stroke-width="3"/>
<path d="m765.31013,476.70864-451.27222,34.74619" fill="none" stroke="#000" stroke-linecap="round" stroke-linejoin="round" stroke-width="3"/>
<path d="m575.24598,389.23508c0,0 .06292-41.58581-.64775-58.71141-.144-3.47001 2.32038-6.83597 7.75471-7.15772 42.57982-2.52099 46.74861-2.46588 133.34014-7.07107 5.48485-.15251 5.20685,3.5762 5.1987,6.71393l-.14794,56.92568c.14176,4.06127-1.84723,5.28152-4.54568,5.55584l-134.35029,9.09137c-6.77046.45815-5.564-3.11721-6.60189-5.34662z" fill="none" stroke="#000" stroke-linecap="round" stroke-linejoin="round" stroke-width="3"/>
<path d="m595.3937,381.24392c0,0 .04612-27.10611-.47463-38.26877-.10553-2.26179 1.70029-4.45576 5.68238-4.66548 31.20102-1.64321 34.25576-1.60728 97.70705-4.609 4.01911-.09941 3.8154,2.33101 3.80943,4.37622l-.10841,37.10479c.10388,2.64719-1.35358,3.44256-3.33091,3.62136l-98.44726,5.92586c-4.96116.29863-4.07711-2.03183-4.83765-3.48498z" fill="none" stroke="#000" stroke-width="3"/>
</g>
<g transform="translate(-226.72911,-161.75677)">
<path d="m362.85714,287.66592c.35715,2.52041 1.42857,176.42858 1.42857,176.42858" fill="none" stroke="#000" stroke-linecap="round" stroke-linejoin="round" stroke-width="2.5"/>
<path d="m369.28572,287.66592c.35715,2.50511 1.42857,175.35715 1.42857,175.35715" fill="none" stroke="#000" stroke-linecap="round" stroke-linejoin="round" stroke-width="2.5"/>
<path d="m355.35715,288.02306c.35715,2.51532 1.42857,176.07144 1.42857,176.07144" fill="none" stroke="#000" stroke-linecap="round" stroke-linejoin="round" stroke-width="2.5"/>
<path d="m389.64286,286.59446c.35715,2.51021 1.42857,175.71428 1.42857,175.71428" fill="none" stroke="#000" stroke-linecap="round" stroke-linejoin="round" stroke-width="2.5"/>
<path d="m396.07143,286.23736c.35715,2.47959 1.42857,173.57144 1.42857,173.57144" fill="none" stroke="#000" stroke-linecap="round" stroke-linejoin="round" stroke-width="2.5"/>
<path d="m402.85715,286.32028c.35715,2.50902 1.42857,175.63135 1.42857,175.63135" fill="none" stroke="#000" stroke-linecap="round" stroke-linejoin="round" stroke-width="2.5"/>
<path d="m408.92857,285.88021c.35715,2.47449 1.42857,173.21429 1.42857,173.21429" fill="none" stroke="#000" stroke-linecap="round" stroke-linejoin="round" stroke-width="2.5"/>
<path d="m431.78572,284.80875c.35715,2.46428 1.42857,172.49999 1.42857,172.49999" fill="none" stroke="#000" stroke-linecap="round" stroke-linejoin="round" stroke-width="2.5"/>
<path d="m439.64286,284.45162c.35715,2.46428 1.42857,172.49999 1.42857,172.49999" fill="none" stroke="#000" stroke-linecap="round" stroke-linejoin="round" stroke-width="2.5"/>
<path d="m446.07143,284.59955c.35715,2.45707 1.42857,171.99491 1.42857,171.99491" fill="none" stroke="#000" stroke-linecap="round" stroke-linejoin="round" stroke-width="2.5"/>
<path d="m452.14286,283.73735c.35715,2.45918 1.42857,172.14285 1.42857,172.14285" fill="none" stroke="#000" stroke-linecap="round" stroke-linejoin="round" stroke-width="2.5"/>
<path d="m476.07143,283.02305c.35715,2.47449 1.42857,173.21428 1.42857,173.21428" fill="none" stroke="#000" stroke-linecap="round" stroke-linejoin="round" stroke-width="2.5"/>
<path d="m481.07143,283.12766c.35715,2.44239 1.42857,170.96683 1.42857,170.96683" fill="none" stroke="#000" stroke-linecap="round" stroke-linejoin="round" stroke-width="2.5"/>
<path d="m487.50001,282.60833c.35715,2.45491 1.42857,171.84327 1.42857,171.84327" fill="none" stroke="#000" stroke-linecap="round" stroke-linejoin="round" stroke-width="2.5"/>
<path d="m494.28571,282.69129c.35715,2.44047 1.42857,170.83312 1.42857,170.83312" fill="none" stroke="#000" stroke-linecap="round" stroke-linejoin="round" stroke-width="2.5"/>
<path d="m515.71429,281.91572c.35715,2.44949 1.42857,171.46446 1.42857,171.46446" fill="none" stroke="#000" stroke-linecap="round" stroke-linejoin="round" stroke-width="2.5"/>
<path d="m522.85714,281.79317c.35715,2.42063 1.42857,169.44415 1.42857,169.44415" fill="none" stroke="#000" stroke-linecap="round" stroke-linejoin="round" stroke-width="2.5"/>
<path d="m529.28572,281.10055c.35715,2.41522 1.42857,169.06534 1.42857,169.06534" fill="none" stroke="#000" stroke-linecap="round" stroke-linejoin="round" stroke-width="2.5"/>
<path d="m582.10319,469.08045c-19.35296,1.34682-20.77964-22.15215-10.18631-30.19209s26.6329-5.86585 29.62898,7.7162" fill="none" stroke="#000" stroke-linecap="round" stroke-linejoin="round" stroke-width="2"/>
<path d="m665.69052,453.17056a13.13198,14.64721 0 1,1 -26.26397,0 13.13198,14.64721 0 1,1 26.26397,0z" fill="none" stroke="#000" stroke-linecap="round" stroke-linejoin="round" stroke-width="1.92725" transform="matrix(1.07692,0,0,1,-109.79581,5.55584)"/>
<path d="m714.09459,456.33622c-19.35296,1.34682-20.77964-22.15215-10.18631-30.19209s26.6329-5.86585 29.62898,7.7162" fill="none" stroke="#000" stroke-linecap="round" stroke-linejoin="round" stroke-width="2"/>
<path d="m665.69052,453.17056a13.13198,14.64721 0 1,1 -26.26397,0 13.13198,14.64721 0 1,1 26.26397,0z" fill="none" stroke="#000" stroke-linecap="round" stroke-linejoin="round" stroke-width="1.92725" transform="matrix(1.07692,0,0,1,22.19559,-7.18839)"/>
<g fill="none" stroke="#000" stroke-linecap="round" stroke-linejoin="round" stroke-width="1.41869">
<path d="m633.22215,416.95414a12.62691,8.83883 0 1,1 25.12805-1.6137" fill="none" stroke="#000" stroke-linecap="round" stroke-linejoin="round" stroke-width="1.41869" transform="matrix(1,0,0,1.11791,-2.27284,-83.84501)"/>
</g>
<path d="m643.00542,370.99105 35.35534-44.10226c4.9408-4.67966 3.09998-.91241 2.59935,1.66317l-26.6338,47.34192c-2.14218-2.67636-6.32192-4.60713-11.32089-4.90283z" fill="#fff" fill-rule="evenodd" stroke="#000" stroke-width="1.5"/>
</g>
<g transform="translate(-226.72911,-161.75677)">
<path d="m594.90588,465.03853c3.66428-.78293 6.57484-5.33718 2.67069-10.65388-.61411-3.45567 7.12043,4.26535 5.91933.03853-.40292-1.42192-1.30912-4.07796-3.70513-6.30339 2.64715.02366 11.04726,4.96579 5.03807,17.9302-1.83827,3.96593-9.4564,7.37194-17.55031,6.03663 5.20669-.91402 5.93069-1.11879 7.44878-2.75363-8.60799-1.05059-10.74639-8.51975-4.82977-5.21653 1.17535.65619 2.7105,1.41304 5.00834.92207z" fill-rule="evenodd" stroke="#000" stroke-linecap="round" stroke-linejoin="round"/>
<path d="m716.43334,451.79418c8.08633,3.33207 18.02613-.28181 13.42785-10.04551-.68359-3.43251 5.34073,1.84 6.36576-.58647-.25768-1.466-2.02341-4.97082-4.41942-7.19625 2.64715.02366 8.91303,5.62145 5.30593,19.44806-1.31017,5.02212-11.78572,8.15973-21.3896,3.80449 5.744-.24415 1.23743-2.39464.70948-5.42432z" fill-rule="evenodd" stroke="#000" stroke-linecap="round" stroke-linejoin="round"/>
<path d="m369.71583,294.07152 19.69798-.50507" fill="none" stroke="#000" stroke-linecap="round" stroke-linejoin="round" stroke-width="4"/>
<path d="m414.41509,291.79868 15.90991-.50507" fill="none" stroke="#000" stroke-linecap="round" stroke-linejoin="round" stroke-width="4"/>
<path d="m455.07372,290.53598 19.69798-.50507" fill="none" stroke="#000" stroke-linecap="round" stroke-linejoin="round" stroke-width="4"/>
<path d="m456.33644,432.9675 17.67768-.50507" fill="none" stroke="#000" stroke-linecap="round" stroke-linejoin="round" stroke-width="4"/>
<path d="m372.49373,438.52333 15.65737-.50507" fill="none" stroke="#000" stroke-linecap="round" stroke-linejoin="round" stroke-width="4"/>
<path d="m412.64733,435.99795 18.68782-.50507" fill="none" stroke="#000" stroke-linecap="round" stroke-linejoin="round" stroke-width="4"/>
<path d="m499.26787,430.69465 15.65737-.50507" fill="none" stroke="#000" stroke-linecap="round" stroke-linejoin="round" stroke-width="4"/>
<path d="m495.73238,290.28344 16.16244-.50507" fill="none" stroke="#000" stroke-linecap="round" stroke-linejoin="round" stroke-width="4"/>
</g>
</svg>
